<svg width="35" height="35" viewBox="0 0 35 35" fill="none" xmlns="http://www.w3.org/2000/svg">
<path fill-rule="evenodd" clip-rule="evenodd" d="M6.31235 11.1276V23.8724C6.31235 24.7174 6.64804 25.5279 7.24556 26.1254C7.84309 26.7229 8.65351 27.0586 9.49855 27.0586H25.4295C26.2746 27.0586 27.085 26.7229 27.6825 26.1254C28.2801 25.5279 28.6157 24.7174 28.6157 23.8724V11.1276C28.6157 10.2826 28.2801 9.47215 27.6825 8.87462C27.085 8.27709 26.2746 7.94141 25.4295 7.94141H9.49855C8.65351 7.94141 7.84309 8.27709 7.24556 8.87462C6.64804 9.47215 6.31235 10.2826 6.31235 11.1276Z" stroke="black" stroke-linecap="round" stroke-linejoin="round"/>
<path d="M9.49854 12.7207L17.464 17.5L25.4295 12.7207" stroke="black" stroke-linecap="round" stroke-linejoin="round"/>
</svg>
